<svg xmlns="http://www.w3.org/2000/svg" viewBox="0 0 320 148" width="320" height="148" role="img">
<defs><radialGradient id="h0"><stop offset="0" stop-color="#f04438" stop-opacity="0.60" /><stop offset="0.30" stop-color="#f04438" stop-opacity="0.24" /><stop offset="0.62" stop-color="#f04438" stop-opacity="0.07" /><stop offset="1" stop-color="#f04438" stop-opacity="0" /></radialGradient><radialGradient id="h1"><stop offset="0" stop-color="#fdf3dc" stop-opacity="0.60" /><stop offset="0.30" stop-color="#fdf3dc" stop-opacity="0.24" /><stop offset="0.62" stop-color="#fdf3dc" stop-opacity="0.07" /><stop offset="1" stop-color="#fdf3dc" stop-opacity="0" /></radialGradient></defs>
<rect width="320" height="148" fill="#080f18" />
<rect y="114.5" width="320" height="33.5" fill="#0d1926" />
<polygon points="101.9,92.9 109.8,69.2 144.2,69.2 144.2,94.2" fill="#1f2b38" />
<polygon points="28,84.1 292,98.6 290.7,114.5 54.4,114.5" fill="#18232f" stroke-linejoin="round" />
<line x1="70.2" y1="92" x2="70.2" y2="22" stroke="#1d2a38" stroke-width="2.6" stroke-linecap="round" />
<line x1="202.2" y1="95.9" x2="202.2" y2="41.8" stroke="#1d2a38" stroke-width="2.6" stroke-linecap="round" />
<line x1="35.9" y1="90.7" x2="35.9" y2="51" stroke="#1d2a38" stroke-width="2.6" stroke-linecap="round" />
<line x1="288" y1="98.6" x2="288" y2="87.9" stroke="#1d2a38" stroke-width="2.6" stroke-linecap="round" />
<circle cx="70.2" cy="28.6" r="20.4" fill="url(#h0)" />
<circle cx="70.2" cy="49.7" r="20.4" fill="url(#h1)" />
<circle cx="70.2" cy="70.8" r="20.4" fill="url(#h0)" />
<circle cx="35.9" cy="56.3" r="20.4" fill="url(#h1)" />
<circle cx="288" cy="87.9" r="20.4" fill="url(#h1)" />
<circle class="feu" cx="70.2" cy="28.6" r="6" fill="#f04438" />
<circle class="feu" cx="70.2" cy="49.7" r="6" fill="#fdf3dc" />
<circle class="feu" cx="70.2" cy="70.8" r="6" fill="#f04438" />
<circle class="feu" cx="35.9" cy="56.3" r="6" fill="#fdf3dc" />
<circle class="feu" cx="288" cy="87.9" r="6" fill="#fdf3dc" />
</svg>
