<svg xmlns="http://www.w3.org/2000/svg" viewBox="0 0 320 181" width="320" height="181" role="img">
<defs><radialGradient id="h0"><stop offset="0" stop-color="#fdf3dc" stop-opacity="0.60" /><stop offset="0.30" stop-color="#fdf3dc" stop-opacity="0.24" /><stop offset="0.62" stop-color="#fdf3dc" stop-opacity="0.07" /><stop offset="1" stop-color="#fdf3dc" stop-opacity="0" /></radialGradient><radialGradient id="h1"><stop offset="0" stop-color="#f04438" stop-opacity="0.60" /><stop offset="0.30" stop-color="#f04438" stop-opacity="0.24" /><stop offset="0.62" stop-color="#f04438" stop-opacity="0.07" /><stop offset="1" stop-color="#f04438" stop-opacity="0" /></radialGradient></defs>
<rect width="320" height="181" fill="#080f18" />
<rect y="147.3" width="320" height="33.7" fill="#0d1926" />
<path d="M 292 123.5 Q 306 151.3 320 145.3" fill="none" stroke="#1d2a38" stroke-width="1.6" />
<polygon points="96.6,118.4 104.6,92 165.3,92 165.3,121.1" fill="#1f2b38" />
<polygon points="28,109 292,126.2 290.7,147.3 62.3,147.3" fill="#18232f" stroke-linejoin="round" />
<line x1="112.5" y1="92" x2="112.5" y2="22" stroke="#1d2a38" stroke-width="2.6" stroke-linecap="round" />
<line x1="290.7" y1="126.2" x2="290.7" y2="99.8" stroke="#1d2a38" stroke-width="2.6" stroke-linecap="round" />
<circle cx="112.5" cy="28.6" r="20.4" fill="url(#h0)" />
<circle cx="112.5" cy="49.7" r="20.4" fill="url(#h0)" />
<circle cx="112.5" cy="70.8" r="20.4" fill="url(#h0)" />
<circle cx="154.7" cy="107.5" r="20.4" fill="url(#h1)" />
<circle class="feu" cx="112.5" cy="28.6" r="6" fill="#fdf3dc" />
<circle class="feu" cx="112.5" cy="49.7" r="6" fill="#fdf3dc" />
<circle class="feu" cx="112.5" cy="70.8" r="6" fill="#fdf3dc" />
<circle class="feu" cx="154.7" cy="107.5" r="6" fill="#f04438" />
</svg>
