<svg xmlns="http://www.w3.org/2000/svg" viewBox="0 0 240 132" width="240" height="132" role="img">
<defs><radialGradient id="halo-blanc"><stop offset="0" stop-color="#fbf3de" stop-opacity="0.5" /><stop offset="0.55" stop-color="#fbf3de" stop-opacity="0.13" /><stop offset="1" stop-color="#fbf3de" stop-opacity="0" /></radialGradient></defs>
<style>.curseur{animation:caracterefixe-balayage 6s linear infinite}@keyframes caracterefixe-balayage{from{transform:translateX(0)}to{transform:translateX(202px)}}.feu-blanc{animation:caracterefixe-blanc 1s step-end infinite}@keyframes caracterefixe-blanc{0%{opacity:1}100%{opacity:1}}@media (prefers-reduced-motion:reduce){.curseur{display:none}[class^='feu-']{animation:none;opacity:0}.feu-blanc{opacity:1}}</style>
<rect width="240" height="132" fill="#0e1720" />
<rect x="42" y="39" width="24" height="20" rx="2" fill="#1b2b38" stroke="#2b3945" stroke-width="1" />
<path d="M42 39 Q54 27 66 39 Z" fill="#2b3945" />
<g class="feu-blanc" opacity="0"><circle cx="54" cy="49" r="34" fill="url(#halo-blanc)" /><rect x="43" y="40" width="22" height="18" rx="2" fill="#fbf3de" /><circle cx="54" cy="49" r="6" fill="#ffffff" fill-opacity="0.75" /></g>
<rect x="42" y="39" width="24" height="20" rx="2" fill="none" stroke="#55646f" stroke-width="1.5" />
<line x1="42" y1="49" x2="66" y2="49" stroke="#55646f" stroke-width="1" stroke-opacity="0.55" />
<rect x="40" y="59" width="28" height="5" fill="#55646f" />
<rect x="51" y="64" width="6" height="29" fill="#2b3945" />
<line x1="20" y1="112" x2="222" y2="112" stroke="#3c4c58" stroke-width="1.5" />
<rect x="20.00" y="104" width="33.67" height="8" fill="#fbf3de" />
<rect x="53.67" y="104" width="33.67" height="8" fill="#fbf3de" />
<rect x="87.33" y="104" width="33.67" height="8" fill="#fbf3de" />
<rect x="121.00" y="104" width="33.67" height="8" fill="#fbf3de" />
<rect x="154.67" y="104" width="33.67" height="8" fill="#fbf3de" />
<rect x="188.33" y="104" width="33.67" height="8" fill="#fbf3de" />
<g class="curseur"><line x1="20" y1="98" x2="20" y2="118" stroke="#fbf3de" stroke-width="1.5" stroke-opacity="0.85" /></g>
</svg>
